<svg width="17" height="18" viewBox="0 0 17 18" fill="none" xmlns="http://www.w3.org/2000/svg">
<path d="M4.38867 4.13965V5.11182H2.93042C2.12505 5.11182 1.47217 5.7647 1.47217 6.57007V15.3196C1.47217 16.125 2.12505 16.7778 2.93042 16.7778H9.7356C10.541 16.7778 11.1938 16.125 11.1938 15.3196V13.8613H12.166V15.3196C12.166 16.6619 11.0779 17.75 9.7356 17.75H2.93042C1.58814 17.75 0.5 16.6619 0.5 15.3196V6.57007C0.5 5.22779 1.58814 4.13965 2.93042 4.13965H4.38867ZM12.166 1.22315H6.81909C6.01372 1.22315 5.36084 1.87603 5.36084 2.6814V11.4309C5.36084 12.2363 6.01372 12.8892 6.81909 12.8892H13.6243C14.4296 12.8892 15.0825 12.2363 15.0825 11.4309V4.13965H12.6521C12.3836 4.13965 12.166 3.92203 12.166 3.65357V1.22315ZM16.0547 3.68077V11.4309C16.0547 12.7732 14.9666 13.8613 13.6243 13.8613H6.81909C5.47681 13.8613 4.38867 12.7732 4.38867 11.4309V2.6814C4.38867 1.33912 5.47681 0.250982 6.81909 0.250982H12.6249C12.754 0.242797 12.8883 0.285824 12.9958 0.393353L15.9123 3.30986C16.0198 3.41739 16.0629 3.55172 16.0547 3.68077ZM13.1382 3.16749H14.3951L13.1382 1.91058V3.16749ZM7.79126 9.97266C7.5228 9.97266 7.30518 9.75504 7.30518 9.48658C7.30518 9.21812 7.5228 9.00049 7.79126 9.00049H9.7356C10.0041 9.00049 10.2217 9.21812 10.2217 9.48658C10.2217 9.75504 10.0041 9.97266 9.7356 9.97266H7.79126ZM7.79126 8.02833C7.5228 8.02833 7.30518 7.8107 7.30518 7.54224C7.30518 7.27379 7.5228 7.05616 7.79126 7.05616H12.6521C12.9206 7.05616 13.1382 7.27379 13.1382 7.54224C13.1382 7.8107 12.9206 8.02833 12.6521 8.02833H7.79126ZM7.79126 6.08399C7.5228 6.08399 7.30518 5.86636 7.30518 5.59791C7.30518 5.32945 7.5228 5.11182 7.79126 5.11182H12.6521C12.9206 5.11182 13.1382 5.32945 13.1382 5.59791C13.1382 5.86636 12.9206 6.08399 12.6521 6.08399H7.79126Z" fill="#A3A3A3"/>
</svg>
